Input #0, mov,mp4,m4a,3gp,3g2,mj2, from '/home/hbattu/projects/huberman-gpt/huberman-audio/mp3/tmpe7wpmiz6.mp4':
  Metadata:
    major_brand     : dash
    minor_version   : 0
    compatible_brands: iso6mp41
    creation_time   : 2021-01-20T16:23:34.000000Z
  Duration: 01:41:25.69, start: 0.000000, bitrate: 129 kb/s
    Stream #0:0(und): Audio: aac (LC) (mp4a / 0x6134706D), 44100 Hz, stereo, fltp, 0 kb/s (default)
    Metadata:
      creation_time   : 2021-01-20T16:23:34.000000Z
      handler_name    : ISO Media file produced by Google Inc.
Stream mapping:
  Stream #0:0 -> #0:0 (aac (native) -> mp3 (libmp3lame))
Press [q] to stop, [?] for help
[graph_0_in_0_0 @ 0x55f07bb3a340] tb:1/44100 samplefmt:fltp samplerate:44100 chlayout:0x3
Output #0, mp3, to '../huberman-audio/mp3/nwSkFq4tyC0.mp3':
  Metadata:
    major_brand     : dash
    minor_version   : 0
    compatible_brands: iso6mp41
    TSSE            : Lavf58.29.100
    Stream #0:0(und): Audio: mp3 (libmp3lame), 44100 Hz, stereo, fltp, delay 1105 (default)
    Metadata:
      creation_time   : 2021-01-20T16:23:34.000000Z
      handler_name    : ISO Media file produced by Google Inc.
      encoder         : Lavc58.54.100 libmp3lame
No more output streams to write to, finishing.
size=   95090kB time=01:41:25.69 bitrate= 128.0kbits/s speed=87.8x    
[AVIOContext @ 0x55f07ba2d900] Statistics: 0 seeks, 139 writeouts
video:0kB audio:95089kB subtitle:0kB other streams:0kB global headers:0kB muxing overhead: 0.000355%
Input file #0 (/home/hbattu/projects/huberman-gpt/huberman-audio/mp3/tmpe7wpmiz6.mp4):
  Input stream #0:0 (audio): 262089 packets read (97371115 bytes); 262089 frames decoded (268379136 samples); 
  Total: 262089 packets (97371115 bytes) demuxed
Output file #0 (../huberman-audio/mp3/nwSkFq4tyC0.mp3):
  Output stream #0:0 (audio): 232968 frames encoded (268379136 samples); 232969 packets muxed (97371533 bytes); 
  Total: 232969 packets (97371533 bytes) muxed
[AVIOContext @ 0x55f07ba55640] Statistics: 2 seeks, 373 writeouts
[AVIOContext @ 0x55f07ba36880] Statistics: 98490895 bytes read, 0 seeks
